<?xml version="1.0" encoding="utf-8"?>
<!-- Generator: Adobe Illustrator 24.0.1, SVG Export Plug-In . SVG Version: 6.00 Build 0)  -->
<svg version="1.1" xmlns="http://www.w3.org/2000/svg" xmlns:xlink="http://www.w3.org/1999/xlink" x="0px" y="0px"
	 viewBox="0 0 1107 1053" style="enable-background:new 0 0 1107 1053;" xml:space="preserve">
<style type="text/css">
	.st0{opacity:0.5;stroke:#FFFFFF;stroke-miterlimit:10;}
	.st1{fill:#E27171;}
	.st2{fill:none;stroke:#E27171;stroke-width:20;stroke-miterlimit:10;}
	.st3{fill:none;stroke:#E27171;stroke-width:20;stroke-linecap:round;stroke-linejoin:round;stroke-miterlimit:10;}
	.st4{fill:none;stroke:#E27171;stroke-width:30;stroke-linecap:round;stroke-linejoin:round;stroke-miterlimit:10;}
	.st5{fill:#A4D9F4;stroke:#E27171;stroke-width:20;stroke-linecap:round;stroke-linejoin:round;stroke-miterlimit:10;}
	.st6{fill:#A4D9F4;stroke:#E27171;stroke-width:30;stroke-linecap:round;stroke-linejoin:round;stroke-miterlimit:10;}
	.st7{fill:#6FDD9B;}
	.st8{fill:#66CC99;}
	.st9{fill:none;stroke:#707070;stroke-miterlimit:10;}
	.st10{fill:none;stroke:#92D8E8;stroke-width:20;stroke-linecap:round;stroke-linejoin:round;stroke-miterlimit:10;}
	.st11{fill:#E0DCDC;}
	.st12{fill:#707070;}
	.st13{fill:none;stroke:#707070;stroke-width:20;stroke-linecap:round;stroke-linejoin:round;stroke-miterlimit:10;}
	.st14{fill:none;stroke:#6FDD9B;stroke-width:20;stroke-linecap:round;stroke-linejoin:round;stroke-miterlimit:10;}
	.st15{fill:#FF8357;}
	.st16{fill:none;stroke:#FF8357;stroke-width:20;stroke-linecap:round;stroke-linejoin:round;stroke-miterlimit:10;}
	.st17{fill:none;stroke:#8FC7FF;stroke-width:20;stroke-linecap:round;stroke-linejoin:round;stroke-miterlimit:10;}
	.st18{fill:#F2A28D;}
	.st19{fill:#FF8931;}
	.st20{fill:#FBAE30;}
	.st21{fill:none;stroke:#707070;stroke-width:10;stroke-linecap:round;stroke-linejoin:round;stroke-miterlimit:10;}
	.st22{fill:none;stroke:#000000;stroke-width:10;stroke-linecap:round;stroke-linejoin:round;stroke-miterlimit:10;}
	.st23{fill:none;stroke:#A3D8B8;stroke-width:20;stroke-miterlimit:10;}
	.st24{fill:#2CB76F;}
	.st25{fill:#5BD68C;}
</style>
<g id="Ebene_1">
	<g>
		<path class="st1" d="M426.8,287.8c30.5,0,61,8.7,87.5,26.2c8.8,5.8,17.2,12.6,25,20.4c0,0,0,0,0,0c0.5,0.5,1,1,1.4,1.5l8.5,8.5
			l17.2,17.1l25.7-25.6c0.5-0.5,1-1,1.5-1.5c0,0,0,0,0,0c13.7-13.7,29.3-24.4,46-32.1c21-9.7,43.8-14.5,66.5-14.5
			c4.6,0,9.2,0.2,13.8,0.6c2.3,0.2,4.6,0.4,6.9,0.7h0c33.6,4.4,66,19.5,91.8,45.3c34.4,34.4,49.8,80.6,46.1,125.6
			c-3,36.2-18.3,71.6-46.1,99.3c0,0,0,0,0,0c-0.5,0.5-1,1-1.5,1.4l-25.6,25.7l-33.2,33.2L678.7,699L566.4,811.4l-11.1-11.1l-62-62
			L341.4,586.4l-25.6-25.7c-0.5-0.5-1-1-1.5-1.4c0,0,0,0,0,0c-52.4-52.4-60.6-132.2-24.6-193.2c6.5-11.1,14.5-21.5,24-31.1
			c0.2-0.2,0.4-0.4,0.6-0.6C345.4,303.3,386.1,287.8,426.8,287.8 M426.8,257.8c-24.5,0-48.5,4.7-71.1,13.8
			c-23.5,9.5-44.5,23.5-62.6,41.5c-0.3,0.3-0.6,0.6-0.9,0.9c-11,11.1-20.5,23.5-28.4,36.8c-10.6,17.9-18,37.3-22.2,57.7
			c-4.1,20.1-5,40.5-2.5,60.9c2.5,20.6,8.3,40.4,17.2,59c9.1,19,21.4,36.3,36.3,51.4c0.1,0.1,0.2,0.2,0.3,0.3
			c0.6,0.6,1.2,1.2,1.8,1.8l25.5,25.5l151.9,151.9l62,62l11.1,11.1c5.9,5.9,13.5,8.8,21.2,8.8c7.7,0,15.4-2.9,21.2-8.8l112.4-112.4
			l79.4-79.4l33.2-33.2l25.6-25.6c0.5-0.5,1-1,1.5-1.5l0.1-0.1c0.2-0.2,0.3-0.3,0.5-0.5c31.3-31.6,50.6-73.3,54.2-117.6
			c4.6-55.5-15.4-109.9-54.7-149.3c-15-15-32.2-27.3-51.1-36.4c-18.3-8.9-37.8-14.7-58.1-17.4c-0.1,0-0.2,0-0.3,0
			c-2.8-0.4-5.4-0.6-8-0.9c-5.4-0.5-10.9-0.7-16.3-0.7c-27.1,0-54.5,6-79,17.3c-20.1,9.2-38.3,21.9-54.1,37.6
			c-0.1,0.1-0.2,0.2-0.3,0.3c-0.6,0.6-1.2,1.2-1.8,1.8l-4.3,4.3l-4.3-4.3c-0.5-0.6-1.1-1.1-1.6-1.7c-0.2-0.2-0.3-0.3-0.5-0.5
			c-8.9-8.8-18.7-16.8-29.1-23.7C499.9,268.6,464,257.8,426.8,257.8L426.8,257.8z"/>
	</g>
	<path class="st8" d="M610.9,659.8L599,707.4L575.2,767l-20,33.3l-62-62l-1.4-7.1L468,695.5l-23.8-23.8L432.3,636l11.9-35.7
		L349,552.6l-11.9-35.7l-23.8-35.7l-11.9-35.7l23.8-35.7L313.2,374l-23.6-7.9c6.5-11.1,14.5-21.5,24-31.1l46.6-9.3h47.6l23.8-11.9
		l35.7,11.9l46.9-11.7c8.8,5.8,17.2,12.6,25,20.4c0,0,0,0,0,0c0.5,0.5,1,1,1.4,1.5l8.5,8.5l-10.4,5.2H515l-35.7,11.9l-11.9,11.9
		l12.6,24.5l11.9,11.9l11.9-35.7h23.8c-1.3,0,23.8,11.9,23.8,11.9l11.9,23.8l-35.7,23.8l-47.6,35.7L456.1,505h-47.6l-23.8,23.8
		l11.9,23.8l11.9-11.9l23.8,23.8l23.8,23.8l23.8-11.9l23.8,11.9l23.8,11.9l23.8,11.9V636l35.7,11.9L610.9,659.8z"/>
	<path class="st8" d="M864.5,460l-30.1-20.1h-22.9v11.5l22.9,11.5v22.9l-22.9,11.5l-22.9,11.5l-22.9-22.9l-11.5-45.9l-11.5-45.9
		h-11.5v-11.5l22.9-11.5l-11.5-11.5l-22.9,11.5l-22.9,22.9h-11.5l-11.5-22.9h-22.9L628,394.1L605,405.5l-11.5-11.5l11.5-22.9
		l11.5-22.9l45.9-22.9v-11.5l-22.9-11.5v0c25.3-11.6,53-16.3,80.3-13.9v2.5l6.9-1.7h0c33.6,4.4,66,19.4,91.8,45.3
		C852.8,368.8,868.2,415,864.5,460z"/>
	<path class="st8" d="M798.7,530.4v11.5l-11.5,22.9l-22.9,22.9l-10.2,22.9l4,9L678.7,699l-4.9-19.5l-11.5-22.9l11.5-45.9l-11.5-22.9
		l-11.5-22.9l-11.5-11.5l-22.9,11.5H605l-22.9-11.5l-11.5-22.9V496l11.5-34.4l22.9-22.9l34.4-11.5h11.5l11.5,11.5v11.5h34.4
		l11.5-11.5h11.5l11.5,11.5c0,0,12.7,22.9,11.5,22.9c-1.3,0,11.5,22.9,11.5,22.9l21.7,22.9L798.7,530.4z"/>
</g>
<g id="Ebene_2">
</g>
</svg>
